<?xml version="1.0" encoding="UTF-8"?>
<svg width="511px" height="183px" viewBox="0 0 511 183" version="1.1" xmlns="http://www.w3.org/2000/svg" xmlns:xlink="http://www.w3.org/1999/xlink">
    <!-- Generator: Sketch 51.1 (57501) - http://www.bohemiancoding.com/sketch -->
    <title>ng-pwa</title>
    <desc>Created with Sketch.</desc>
    <defs></defs>
    <g id="Page-1" stroke="none" stroke-width="1" fill="none" fill-rule="evenodd">
        <g id="angular" fill-rule="nonzero">
            <polygon id="Shape" fill="#DD0031" points="88 0 88 0 88 0 0 30.378 13.4221267 143.0145 88 183 88 183 88 183 162.577873 143.0145 176 30.378"></polygon>
            <polygon id="Shape" fill="#C3002F" points="88 0 88 20.313 88 20.2215 88 112.911 88 112.911 88 183 88 183 162.577873 143.0145 176 30.378"></polygon>
            <path d="M88.0946644,20 L33,139 L53.5421687,139 L64.6179002,112.37318 L111.3821,112.37318 L122.457831,139 L143,139 L88.0946644,20 Z M104.187608,95.959387 L72.0017212,95.959387 L88.0946644,58.6636015 L104.187608,95.959387 Z" id="Shape" fill="#FFFFFF"></path>
        </g>
        <g id="pwa_diekus" transform="translate(283.000000, 8.000000)" fill-rule="nonzero">
            <rect id="Rectangle-path" fill="#3D3D3D" x="0" y="0" width="228" height="166"></rect>
            <g id="Group" transform="translate(27.000000, 20.000000)">
                <g transform="translate(30.502545, 0.000000)" id="Shape">
                    <polygon fill="#0096FF" points="0.215966921 0.0167058621 113.778944 0.0167058621 103.640076 113.051979 57.5923664 125.983272 10.6039758 113.055238"></polygon>
                    <polygon fill-opacity="0.301961" fill="#FFFFFF" points="57.3091603 9.3213931 103.731139 9.3213931 94.6908079 106.065279 57.4033397 116.263241"></polygon>
                </g>
                <g transform="translate(0.000000, 29.110345)" fill="#FFFFFF" id="Shape">
                    <polygon points="128.743003 56.2477034 133.792176 43.7897793 148.370611 43.7897793 141.451431 24.8915172 150.104803 3.54081724 174.888677 67.7473759 156.611419 67.7473759 152.375795 56.2477034"></polygon>
                    <polygon points="113.149968 64.2387103 139.681616 0.0319344828 122.091889 0.0319344828 103.94243 41.5237345 91.0362913 0.0321517241 77.5163168 0.0321517241 63.6588104 41.5237345 53.8861959 22.6167828 45.0422392 49.2019138 54.0213422 64.2387103 71.3318702 64.2387103 83.8541667 27.0293897 95.7935751 64.2387103"></polygon>
                    <path d="M16.8077926,42.1976172 L27.6422074,42.1976172 C30.924014,42.1976172 33.8464695,41.8402552 36.4095738,41.125531 L39.211355,32.7028655 L47.042271,9.16302414 C46.4455789,8.24018276 45.7642812,7.36774138 44.9986005,6.5457 C40.9780534,2.20326207 35.0952926,0.0321517241 27.3505407,0.0321517241 L0.111323155,0.0321517241 L0.111323155,64.2387103 L16.8077926,64.2387103 L16.8077926,42.1976172 Z M31.1486641,14.8034793 C32.7192112,16.3456759 33.5044847,18.409469 33.5044847,20.9950759 C33.5044847,23.6004517 32.8138359,25.6666345 31.4327608,27.1940586 C29.9185433,28.8911483 27.1305662,29.7394759 23.0690522,29.7394759 L16.8077926,29.7394759 L16.8077926,12.4900759 L23.1151399,12.4900759 C26.9003499,12.4900759 29.5783397,13.2610655 31.1486641,14.8034793 Z"></path>
                </g>
            </g>
        </g>
        <path d="M242,80 L268,80 L268,101 L242,101 L242,135 L217,135 L217,101 L191,101 L191,80 L217,80 L217,48 L242,48 L242,80 Z" id="Combined-Shape" fill="#F8E71C" fill-rule="nonzero"></path>
    </g>
</svg>